<?xml version="1.0" encoding="UTF-8" standalone="no"?>
<!-- Created with Inkscape (http://www.inkscape.org/) -->

<svg
   id="svg2"
   viewBox="0 0 369.49509 439.18331"
   version="1.0"
   inkscape:version="1.1 (c68e22c387, 2021-05-23)"
   sodipodi:docname="pinguin_002.svg"
   width="369.49509"
   height="439.18332"
   xmlns:inkscape="http://www.inkscape.org/namespaces/inkscape"
   xmlns:sodipodi="http://sodipodi.sourceforge.net/DTD/sodipodi-0.dtd"
   xmlns:xlink="http://www.w3.org/1999/xlink"
   xmlns="http://www.w3.org/2000/svg"
   xmlns:svg="http://www.w3.org/2000/svg"
   xmlns:rdf="http://www.w3.org/1999/02/22-rdf-syntax-ns#"
   xmlns:cc="http://creativecommons.org/ns#"
   xmlns:dc="http://purl.org/dc/elements/1.1/">
  <sodipodi:namedview
     id="namedview24"
     pagecolor="#ffffff"
     bordercolor="#999999"
     borderopacity="1"
     inkscape:pageshadow="0"
     inkscape:pageopacity="0"
     inkscape:pagecheckerboard="0"
     showgrid="false"
     inkscape:snap-nodes="false"
     inkscape:zoom="0.74417208"
     inkscape:cx="235.16066"
     inkscape:cy="101.45503"
     inkscape:window-width="1920"
     inkscape:window-height="1017"
     inkscape:window-x="1912"
     inkscape:window-y="-8"
     inkscape:window-maximized="1"
     inkscape:current-layer="svg2" />
  <defs
     id="defs4">
    <linearGradient
       id="linearGradient3180"
       inkscape:swatch="solid">
      <stop
         style="stop-color:#cd3032;stop-opacity:1;"
         offset="0"
         id="stop3178" />
    </linearGradient>
    <linearGradient
       id="linearGradient3211"
       y2="537.40997"
       gradientUnits="userSpaceOnUse"
       x2="352.31"
       gradientTransform="translate(0,-2)"
       y1="537.40997"
       x1="351.79001">
      <stop
         id="stop4100"
         style="stop-color:#ffb142"
         offset="0" />
      <stop
         id="stop4104"
         style="stop-color:#c87600"
         offset="1" />
    </linearGradient>
    <linearGradient
       id="a">
      <stop
         stop-color="#a00900"
         offset="0"
         id="stop841" />
      <stop
         stop-color="#c50b00"
         offset="1"
         id="stop843" />
    </linearGradient>
    <linearGradient
       id="f"
       y2="656.25"
       xlink:href="#a"
       gradientUnits="userSpaceOnUse"
       x2="1385"
       gradientTransform="scale(0.8)"
       y1="656.25"
       x1="-0.10914" />
    <linearGradient
       id="e"
       y2="959.91998"
       gradientUnits="userSpaceOnUse"
       x2="1000.4"
       gradientTransform="scale(0.8)"
       y1="959.91998"
       x1="347.56">
      <stop
         stop-color="#0b3481"
         offset="0"
         id="stop847" />
      <stop
         stop-color="#0f49b4"
         offset="1"
         id="stop849" />
    </linearGradient>
    <linearGradient
       id="d"
       y2="635.03003"
       gradientUnits="userSpaceOnUse"
       x2="1048.9"
       gradientTransform="scale(0.8)"
       y1="635.03003"
       x1="285.10999">
      <stop
         stop-color="#cacaca"
         offset="0"
         id="stop852" />
      <stop
         stop-color="#e6e6e6"
         offset="1"
         id="stop854" />
    </linearGradient>
    <filter
       id="b"
       style="color-interpolation-filters:sRGB"
       height="1.2698445"
       width="1.1490138"
       y="-0.13492225"
       x="-0.074506871">
      <feGaussianBlur
         stdDeviation="10.753799"
         id="feGaussianBlur857" />
    </filter>
    <filter
       id="j"
       style="color-interpolation-filters:sRGB"
       height="2.4659257"
       width="1.5565163"
       y="-0.73296291"
       x="-0.27825817">
      <feGaussianBlur
         stdDeviation="31.232161"
         id="feGaussianBlur860" />
    </filter>
    <filter
       id="i"
       style="color-interpolation-filters:sRGB"
       height="1.2534753"
       width="1.7916517"
       y="-0.12673762"
       x="-0.39582583">
      <feGaussianBlur
         stdDeviation="8.8842019"
         id="feGaussianBlur863" />
    </filter>
    <filter
       id="h"
       style="color-interpolation-filters:sRGB"
       height="1.7995716"
       width="1.9173123"
       y="-0.39978579"
       x="-0.45865616">
      <feGaussianBlur
         stdDeviation="11.254221"
         id="feGaussianBlur866" />
    </filter>
    <filter
       id="g"
       style="color-interpolation-filters:sRGB"
       height="1.1780342"
       width="1.2083488"
       y="-0.089017093"
       x="-0.10417442">
      <feGaussianBlur
         stdDeviation="8.7993912"
         id="feGaussianBlur869" />
    </filter>
    <linearGradient
       id="c"
       y2="1056.1"
       xlink:href="#a"
       gradientUnits="userSpaceOnUse"
       x2="1997.8"
       gradientTransform="matrix(0.8,0,0,0.8,-1600,0)"
       y1="1077.2"
       x1="3387.1001" />
    <clipPath
       id="k"
       clipPathUnits="userSpaceOnUse">
      <path
         d="M 500.57,0 C 396.71,5.01 289.52,18.49 196.42,68.4 c -26.79,16.76 -57.321,37.82 -62.661,71.47 -2.45,12.06 0.67032,24.45 6.2203,35.17 69,150.91 113.05,312.4 138.07,476.13 1.02,19.36 5.3794,38.3 7.0094,57.57 -75.74,1.5 -155.15,-2.9909 -227.17,24.189 -34.319,10.97 -59.66,43.74 -57.89,80.19 v 2.73 c 0.9,36.96 21.949,68.63 41.959,98.18 34.18,46.24 85.921,75.98 138.76,96.27 75.84,28.44 157.4,37.85 237.87,39.7 h 30.73 c 160.95,-6.11 325.7,-29 472.51,-99.15 57.97,-29.13 113.93,-66.381 152.33,-119.69 17.8,-25.25 31.971,-54.35 33.841,-85.65 v -29 c -1.57,-42.22 -16.27,-89.259 -55.12,-111.44 -12.314,-5.0578 -25.371,-6.8996 -38.558,-6.8391 -14.945,0.0686 -30.056,2.58 -44.442,5.6188 -58.28,13.86 -114.13,35.999 -171.08,54.209 0.2,-13.08 0.24032,-26.149 0.22032,-39.219 0.32,-159.56 9.3797,-319.73 40.08,-476.63 6.13,-12.61 4.8894,-27.819 0.50938,-40.809 -15.23,-32.31 -48.55,-50.1 -79.98,-63 -69.52,-28.53 -145.72,-36.13 -220.24,-38.4 z"
         fill="#c30a00"
         id="path873" />
    </clipPath>
    <linearGradient
       id="linearGradient582"
       y2="259.04999"
       gradientUnits="userSpaceOnUse"
       y1="250.64"
       gradientTransform="scale(1.7811,0.56144)"
       x2="111.24"
       x1="118.04">
      <stop
         id="stop580"
         style="stop-color:#000000;stop-opacity:.40833"
         offset="0" />
      <stop
         id="stop581"
         style="stop-color:#000000;stop-opacity:0"
         offset="1" />
    </linearGradient>
    <linearGradient
       id="linearGradient584"
       y2="353.04001"
       xlink:href="#linearGradient585"
       gradientUnits="userSpaceOnUse"
       x2="114.93"
       gradientTransform="scale(1.5608,0.64072)"
       y1="259.42999"
       x1="132.25" />
    <linearGradient
       id="linearGradient585">
      <stop
         id="stop586"
         style="stop-color:#ffffff;stop-opacity:.175"
         offset="0" />
      <stop
         id="stop587"
         style="stop-color:#ffffff;stop-opacity:.375"
         offset="1" />
    </linearGradient>
    <linearGradient
       id="linearGradient589"
       y2="218.53999"
       xlink:href="#linearGradient585"
       gradientUnits="userSpaceOnUse"
       x2="147.05"
       gradientTransform="scale(2.1949,0.4556)"
       y1="218.53999"
       x1="73.292999" />
  </defs>
  <g
     id="layer1"
     transform="translate(-170.63246,-297.11811)">
    <path
       id="path3806"
       style="fill:#ff8f06;fill-rule:evenodd;stroke:#080808;stroke-width:5"
       d="m 318.91,673.34 c -48.083,4.9497 -103.23,43.858 -81.312,52.344 21.92,8.4853 85.542,12.024 97.562,2.125 6.177,-5.087 17.229,-17.827 18.531,-29.781 1.3042,11.953 12.324,24.695 18.5,29.781 12.021,9.8995 75.673,6.3603 97.594,-2.125 21.92,-8.4853 -33.229,-47.394 -81.312,-52.344 -24.76,2.3865 -33.666,10.706 -34.781,20.25 -1.1158,-9.5442 -10.021,-17.864 -34.781,-20.25 z" />
    <path
       id="path3194"
       style="fill:#000000;fill-opacity:0.31373;fill-rule:evenodd"
       d="m 148.25,307.16 c -23.6,2.4294 -48.881,13.04 -65.938,24.219 25.832,11.947 57.418,19.309 91.656,20.156 4.3873,-5.7724 8.3176,-12.85 9.0625,-19.688 0.73903,6.7733 4.5772,13.788 8.9062,19.531 33.676,-1.4258 64.607,-9.1457 89.781,-21.312 -16.995,-10.691 -41.222,-20.571 -63.906,-22.906 -24.76,2.3865 -33.666,10.706 -34.781,20.25 -1.1158,-9.5442 -10.021,-17.864 -34.781,-20.25 z"
       transform="translate(170.66,366.2)" />
    <path
       id="path2385"
       style="fill:#1c1c1c;stroke:#080808;stroke-width:5;stroke-linecap:round"
       d="m 516.84,534.27 a 165.565,165.565 0 1 1 -331.13,0 165.565,165.565 0 1 1 331.13,0 z" />
    <path
       id="path2387"
       style="fill:#ffffff;stroke:#080808;stroke-width:5;stroke-linecap:round"
       d="m 317.28,424.09 c -22.935,0 -41.562,21.434 -41.562,47.844 0,26.41 18.628,47.844 41.562,47.844 13.478,0 25.439,-7.4105 33.031,-18.875 7.5922,11.473 19.579,18.875 33.062,18.875 22.935,0 41.562,-21.434 41.562,-47.844 0,-26.41 -18.628,-47.844 -41.562,-47.844 -13.482,0 -25.47,7.4045 -33.062,18.875 -7.5928,-11.462 -19.555,-18.875 -33.031,-18.875 z" />
    <path
       id="path3167"
       style="fill:#ffffff;stroke:#080808;stroke-width:4.4118;stroke-linecap:round"
       d="m 418.63,583.05 a 70.821,70.821 0 1 1 -141.64,0 70.821,70.821 0 1 1 141.64,0 z"
       transform="matrix(1.1333,0,0,1.1333,-41.339,-43.746)" />
    <path
       id="path2411"
       style="fill:#000000;fill-opacity:0.31373"
       d="m 339.66,122.03 c 0.33607,4.3048 0.53125,8.6406 0.53125,13.031 0,91.391 -74.202,165.56 -165.59,165.56 -75.42,0 -139.07,-50.513 -159.03,-119.53 6.6593,85.301 78.03,152.53 165.03,152.53 91.391,0 165.59,-74.171 165.59,-165.56 0,-15.971 -2.3048,-31.416 -6.5312,-46.031 z"
       transform="translate(170.66,366.2)" />
    <path
       id="path3393"
       style="fill:#000000;fill-opacity:0.31373;fill-rule:evenodd"
       d="m 352.3,506.61 c -14.479,0 -30.217,13.186 -29.588,21.514 0.62952,8.3281 25.81,43.029 31.476,43.029 5.6657,0 27.699,-34.006 27.069,-43.723 -0.62952,-9.7161 -19.515,-21.514 -28.958,-20.82 z" />
    <path
       id="path2391"
       style="fill:url(#linearGradient3211);fill-rule:evenodd;stroke:#080808;stroke-width:5"
       d="m 350.01,498.27 c -14.479,0 -30.217,11.961 -29.588,19.515 0.62952,7.5543 25.81,39.03 31.476,39.03 5.6657,0 27.699,-30.847 27.069,-39.66 -0.62952,-8.8133 -19.515,-19.515 -28.958,-18.886 z" />
    <path
       id="path3163"
       style="fill:#000000;stroke:#000000;stroke-width:5;stroke-linecap:round"
       d="m 340.57,487.37 a 10.387,10.387 0 1 1 -20.774,0 10.387,10.387 0 1 1 20.774,0 z"
       transform="translate(2.4773,-7)" />
    <path
       id="path3165"
       style="fill:#000000;stroke:#000000;stroke-width:5;stroke-linecap:round"
       d="m 340.57,487.37 a 10.387,10.387 0 1 1 -20.774,0 10.387,10.387 0 1 1 20.774,0 z"
       transform="translate(39.66,-7)" />
    <path
       id="path3169"
       style="fill:#ffffff;fill-rule:evenodd;stroke:#000000;stroke-width:5"
       d="m 226.4,497.25 c 48.111,17.3 -14.163,94.143 37.819,161.19 9.6084,12.393 -57.868,2.0908 -81.723,-66.585 -23.198,-66.786 -1.1324,-107.54 43.904,-94.607 z" />
    <path
       id="path3793"
       style="fill:#1c1c1c;fill-rule:evenodd;stroke:#080808;stroke-width:5"
       d="m 226.4,497.25 c 48.111,17.3 -42.588,102.12 37.819,161.19 22.626,16.622 -57.868,2.0908 -81.723,-66.585 -23.198,-66.786 -1.1324,-107.54 43.904,-94.607 z" />
    <path
       id="path3800"
       style="fill:#ffffff;fill-rule:evenodd;stroke:#000000;stroke-width:5"
       d="m 484.36,497.25 c -48.111,17.3 14.163,94.143 -37.819,161.19 -9.6084,12.393 57.868,2.0908 81.723,-66.585 23.198,-66.786 1.1324,-107.54 -43.904,-94.607 z" />
    <path
       id="path3802"
       style="fill:#1c1c1c;fill-rule:evenodd;stroke:#080808;stroke-width:5"
       d="m 484.36,497.25 c -48.111,17.3 42.588,102.12 -37.819,161.19 -22.626,16.622 57.868,2.0908 81.723,-66.585 23.198,-66.786 1.1324,-107.54 -43.904,-94.607 z" />
  </g>
  <metadata
     id="metadata21">
    <rdf:RDF>
      <cc:Work>
        <dc:format>image/svg+xml</dc:format>
        <dc:type
           rdf:resource="http://purl.org/dc/dcmitype/StillImage" />
        <cc:license
           rdf:resource="http://creativecommons.org/licenses/publicdomain/" />
        <dc:publisher>
          <cc:Agent
             rdf:about="http://openclipart.org/">
            <dc:title>Openclipart</dc:title>
          </cc:Agent>
        </dc:publisher>
        <dc:date>2010-05-19T15:24:42</dc:date>
        <dc:description>I don't like gradients but I like penguins, so there you go :)</dc:description>
        <dc:source>https://openclipart.org/detail/61207/cute-round-cartoon-penguin-by-qubodup</dc:source>
        <dc:creator>
          <cc:Agent>
            <dc:title>qubodup</dc:title>
          </cc:Agent>
        </dc:creator>
        <dc:subject>
          <rdf:Bag>
            <rdf:li>animal</rdf:li>
            <rdf:li>bird</rdf:li>
            <rdf:li>cartoon</rdf:li>
            <rdf:li>color</rdf:li>
            <rdf:li>colour</rdf:li>
            <rdf:li>penguin</rdf:li>
            <rdf:li>tux</rdf:li>
          </rdf:Bag>
        </dc:subject>
      </cc:Work>
      <cc:License
         rdf:about="http://creativecommons.org/licenses/publicdomain/">
        <cc:permits
           rdf:resource="http://creativecommons.org/ns#Reproduction" />
        <cc:permits
           rdf:resource="http://creativecommons.org/ns#Distribution" />
        <cc:permits
           rdf:resource="http://creativecommons.org/ns#DerivativeWorks" />
      </cc:License>
    </rdf:RDF>
  </metadata>
  <g
     id="Layer_x0020_1"
     transform="matrix(0.06066812,0,0,0.0728147,161.31867,184.94082)">
	
		<linearGradient
   id="SVGID_1_"
   gradientUnits="userSpaceOnUse"
   x1="45409.082"
   y1="-10987.157"
   x2="45557.805"
   y2="-54254.348"
   gradientTransform="matrix(0.0276,0,0,-0.0276,-921.8766,-651.5629)">
		<stop
   offset="0"
   style="stop-color:#000000"
   id="stop1053" />

		<stop
   offset="0.4706"
   style="stop-color:#141313"
   id="stop1055" />

		<stop
   offset="1"
   style="stop-color:#9E9898"
   id="stop1057" />

	</linearGradient>

	<path
   fill="url(#SVGID_1_)"
   d="m -484.4354,-370.9721 c -126.1113,13.9998 -245.6743,50.4671 -332.4957,118.6598 -82.8699,65.1443 -118.434,143.724 -138.8692,242.0614 h -47.8704 c -11.4031,0 -20.7739,9.3708 -20.7739,20.7739 v 62.5476 c 0,11.4031 9.3708,20.7739 20.7739,20.7739 h 35.1124 c -1.2419,34.2092 0.3387,68.1927 4.9677,101.3858 12.9837,94.6117 49.7897,183.2396 110.8695,253.3516 76.2087,87.4989 161.7883,137.4015 249.513,159.4173 266.4482,66.6121 495.0743,-120.3533 653.4755,-314.4315 64.354,-78.8055 118.2082,-165.6269 145.0788,-249.9646 19.1933,-60.0638 24.9513,-118.8856 11.9676,-173.4171 7.4515,-3.9516 15.6933,-7.5644 24.7255,-10.6128 22.6933,-7.7902 49.7897,-12.1934 78.2409,-12.1934 29.1287,0 56.5638,4.5161 79.4828,12.5321 19.0804,6.6612 34.6609,15.5805 44.9349,25.8545 -8.4676,50.1284 -2.1451,103.418 15.1288,157.8367 26.9836,84.3376 80.8377,171.1591 145.1917,249.9646 159.756,195.7717 384.0919,381.7209 653.4755,314.4315 87.7247,-22.0158 173.1914,-71.9184 249.4001,-159.4173 61.1927,-70.112 97.8859,-158.7399 110.9824,-253.3516 4.5161,-33.1931 6.2096,-67.1766 4.9677,-101.3858 h 51.3704 c 11.4031,0 20.7739,-9.3708 20.7739,-20.7739 V 10.523 c 0,-11.4031 -9.3708,-20.7739 -20.7739,-20.7739 h -64.1283 c -20.7739,-99.5794 -57.5798,-180.8687 -141.8046,-246.013 -86.5957,-67.0637 -204.9167,-101.9503 -329.5603,-114.7082 -143.6111,-16.0321 -296.8188,-3.0484 -417.1722,24.4997 H -67.3762 c -120.3533,-27.5481 -273.561,-40.5318 -417.0592,-24.4997 z m 931.8914,210.336 c -12.4192,-8.4676 -26.9835,-15.5805 -43.1285,-21.2255 -27.6609,-9.7096 -60.1766,-15.1288 -94.0472,-15.1288 -33.1931,0 -65.2572,5.3064 -92.4666,14.5643 -8.6934,3.0484 -17.0482,6.4354 -24.7255,10.2741 -5.8709,-13.2095 -13.0966,-26.0803 -21.6771,-38.4995 -21.5642,-31.3867 -51.5961,-59.725 -91.4504,-83.7731 h 485.3648 c -39.9673,24.0481 -69.9991,52.3864 -91.5634,83.7731 -10.9515,16.032 -19.7578,32.7414 -26.3061,50.0154 z"
   id="path1060"
   style="fill:url(#SVGID_1_)" />

	
		<linearGradient
   id="SVGID_2_"
   gradientUnits="userSpaceOnUse"
   x1="44516.219"
   y1="-8350.4902"
   x2="45822.688"
   y2="-47497.184"
   gradientTransform="matrix(0.0276,0,0,-0.0276,-921.8766,-651.5629)"
   spreadMethod="pad">
		<stop
   offset="0"
   style="stop-color:#750B0C"
   id="stop1062" />

		<stop
   offset="1"
   style="stop-color:#cd3032;stop-opacity:0.63917524"
   id="stop1064" />

	</linearGradient>

	<path
   fill="url(#SVGID_2_)"
   d="m -847.3017,-67.8308 c -30.0319,81.628 -39.8543,169.3527 -28.5641,251.3194 10.8386,77.7893 40.5317,150.2723 89.7569,206.8361 63.3379,72.5959 133.2241,113.805 204.3522,131.6435 82.3054,20.5481 167.4334,10.0482 246.6904,-19.3062 79.4828,-31.1609 212.5941,-137.4015 316.6895,-264.8676 C 39.6547,166.5533 87.8638,89.5543 111.1216,16.8455 132.1213,-49.202 132.1213,-111.4109 98.2508,-160.749 80.4123,-186.7164 52.7514,-210.2 13.4616,-230.0707 l -8.9192,-3.3871 c -115.0469,-42.3382 -304.3832,-68.983 -479.381,-49.451 -167.0947,18.7418 -319.1735,79.4829 -370.4309,209.5458 z M 534.1646,16.8455 c 23.2578,72.7087 71.3539,149.7078 129.4984,220.9488 104.0954,127.4661 237.0937,233.7067 316.5766,264.8676 79.257,29.3544 164.4979,39.8543 246.6904,19.3062 71.1282,-17.8385 141.1272,-59.0476 204.3523,-131.6435 49.338,-56.5638 79.0313,-129.0468 89.7568,-206.8361 11.2903,-81.9667 1.5807,-169.6914 -28.4512,-251.3194 l -2.0322,-5.5322 c -51.2574,-130.0629 -203.3362,-190.804 -370.5437,-209.5457 -174.9978,-19.532 -364.2212,7.1128 -479.2681,49.451 l -8.9193,3.3871 c -39.4028,19.8707 -67.0637,43.3543 -84.7892,69.3217 -33.8705,49.3381 -33.8705,111.547 -12.8708,177.5945 z"
   id="path1067"
   style="fill:#cd3032;fill-opacity:1" />

	
		<linearGradient
   id="SVGID_3_"
   gradientUnits="userSpaceOnUse"
   x1="45024.785"
   y1="-22586.059"
   x2="45402.539"
   y2="-47649.039"
   gradientTransform="matrix(0.0276,0,0,-0.0276,-921.8766,-651.5629)">
		<stop
   offset="0"
   style="stop-color:#A11D1F"
   id="stop1069" />

		<stop
   offset="0.4784"
   style="stop-color:#C43E40"
   id="stop1071" />

		<stop
   offset="1"
   style="stop-color:#E86062"
   id="stop1073" />

	</linearGradient>

	<path
   fill="url(#SVGID_3_)"
   d="m 724.1783,132.0054 c -44.3704,0 -87.9505,2.8225 -130.7403,8.2418 20.5482,33.0802 44.3704,65.8217 70.2249,97.5471 104.0955,127.4661 237.0938,233.7067 316.5767,264.8676 79.257,29.3544 164.4979,39.8543 246.6904,19.3062 66.725,-16.7095 132.208,-53.9671 192.2717,-118.2082 C 1237.0911,235.1976 992.7717,132.0054 724.1783,132.0054 Z m -791.1028,0 c 40.4188,0 80.3861,2.4838 119.563,6.9999 -20.7739,33.5318 -44.9349,66.725 -71.0152,98.7891 -104.0955,127.466 -237.2067,233.7066 -316.6896,264.8675 -79.257,29.3544 -164.385,39.8543 -246.6904,19.3062 -64.5798,-16.145 -128.1435,-51.5961 -186.6266,-112.3373 182.9008,-172.0623 429.7042,-277.6254 701.4588,-277.6254 z"
   id="path1076"
   style="fill:url(#SVGID_3_)" />

</g>
  <g
     id="whole"
     transform="matrix(-0.49984436,0.04892341,0.0401099,0.40979779,339.11035,-94.094043)">
    <g
       transform="matrix(1.3106776,0,0,1.3106776,35.773636,86.247115)"
       id="red-hat">
      <path
         d="M 93.858,201.9 C 96.772,188.93 99.685,99.57 125.91,101.01 219.14,103.89 315.29,7.32 385.21,222.08 600.81,322.98 400.2,404.05 229.52,396.85 60.86,389.78 -83.14,268.2 93.86,201.9 Z"
         style="fill:#d90000;fill-opacity:0.99167;fill-rule:evenodd;stroke:#000000;stroke-width:10;stroke-linejoin:round"
         sodipodi:nodetypes="cccsc"
         inkscape:connector-curvature="0"
         id="hat" />
      <path
         d="m 89.488,230.73 c 107.8,67.74 285.52,25.94 292.81,-7.21 10.19,11.53 0,43.24 0,43.24 -46.62,60.54 -272.42,47.57 -297.18,4.33 -2.916,-11.53 2.911,-36.04 4.368,-40.36 z"
         style="fill-rule:evenodd;stroke:#000000;stroke-width:5"
         sodipodi:nodetypes="ccccc"
         inkscape:connector-curvature="0"
         id="band" />
      <path
         d="m 130.28,122.63 c 27.68,-24.505 148.59,10.09 164.61,28.83 5.83,31.71 -148.59,7.2 -164.61,-28.83 z"
         style="fill:url(#linearGradient582);fill-rule:evenodd;stroke-width:1pt"
         sodipodi:nodetypes="ccc"
         inkscape:connector-curvature="0"
         id="dark-shadow" />
      <path
         d="m 130.28,158.66 c 13.11,30.27 64.09,100.9 150.04,33.15 -71.38,2.89 -101.97,-5.76 -150.04,-33.15 z"
         style="fill:url(#linearGradient584);fill-rule:evenodd;stroke-width:1pt"
         sodipodi:nodetypes="ccc"
         inkscape:connector-curvature="0"
         id="front-highlight" />
      <path
         d="m 160.87,99.567 c 18.94,8.643 138.39,41.803 151.5,31.713 14.57,-5.77 11.66,-8.65 4.37,-10.09 -11.65,7.2 -32.05,11.53 -155.87,-21.623 z"
         style="fill:url(#linearGradient589);fill-rule:evenodd;stroke-width:1pt"
         sodipodi:nodetypes="cccc"
         inkscape:connector-curvature="0"
         id="top-highlight" />
      <path
         d="m 106.97,246.58 c 17.48,8.65 71.38,20.18 91.78,21.62 14.56,10.09 7.28,25.95 1.45,37.48 -39.33,0 -84.49,-10.09 -96.14,-23.06 -7.288,-12.97 -4.375,-23.06 2.91,-36.04 z"
         style="fill:#ffffff;fill-opacity:0.31667;fill-rule:evenodd;stroke:#000000;stroke-width:1.8783pt"
         sodipodi:nodetypes="ccccc"
         inkscape:connector-curvature="0"
         id="grey" />
    </g>
    <g
       style="fill:none"
       transform="matrix(5.5071,0,0,5.5071,-1052,-2439.7)"
       id="bw-hat">
      <path
         sodipodi:nodetypes="cccccsc"
         style="fill:none;fill-opacity:0.99167;fill-rule:evenodd;stroke:#000000;stroke-width:2.38;stroke-linejoin:round"
         d="m 219.81,506.7 c 0.17,-0.77 -1.18,10.41 -0.92,7.99 1.71,-9.5 0.99,-19.79 4.82,-28.83 0.95,-1.99 2.17,-3.26 3.73,-3.17 22.19,0.69 45.07,-22.3 61.71,28.81 51.31,24.02 3.57,43.31 -37.05,41.6 -40.14,-1.68 -74.42,-30.62 -32.29,-46.4 z"
         id="outline"
         inkscape:connector-curvature="0" />
    </g>
  </g>
</svg>
